<?xml version="1.0" encoding="UTF-8" standalone="no" ?>
<!DOCTYPE svg PUBLIC "-//W3C//DTD SVG 1.1//EN" "http://www.w3.org/Graphics/SVG/1.1/DTD/svg11.dtd">
<svg
  xmlns="http://www.w3.org/2000/svg"
  xmlns:xlink="http://www.w3.org/1999/xlink"
  version="1.1"
  width="500"
  height="500"
  viewBox="0 0 500 500"
  xml:space="preserve"
>
<desc>CO Sensor with Spaced, Wide, Thick Cyan Wavy Lines</desc>
  <defs />
  <!-- Sensor Housing -->
  <g transform="matrix(1 0 0 1 250 125)" opacity="1" fill="#3daeff" fill-opacity="1" class="smoke_sensor_box">
    <path
      style="stroke: none; fill-rule: nonzero; opacity: 1;"
      vector-effect="non-scaling-stroke"
      transform=" translate(-222.5, -100)"
      d="M 0 0 L 445 0 L 445 124.6137 L 402.96864 124.6137 L 350.9804 200 L 88.48046 200 L 36.492219999999996 124.6137 L 0.0011099999999970578 124.6137 z M 94.73049 185.04636 L 149.73026 185.04636 L 149.73026 130.21633 L 94.73048999999999 130.21633 z M 289.72949 184.04945 L 343.72913 184.04945 L 343.72913 130.21633 L 289.72949 130.21633 z M 224.72945 185.04636 L 279.72922 185.04636 L 279.72922 130.21633 L 224.72944999999999 130.21633 z M 159.73052 185.04636 L 214.73029000000002 185.04636 L 214.73029000000002 130.21633 L 159.73052 130.21633 z"
    />
  </g>

  <!-- Centered CO Label -->
  <g transform="matrix(1 0 0 1 250 100)" fill="#ffffff" class="label-text">
    <text
      text-anchor="middle"
      dominant-baseline="middle"
      font-family="Arial"
      font-size="100"
      font-weight="bold"
      x="0"
      y="0"
    >
      CO2
    </text>
  </g>

  <!-- Cyan Wavy Lines -->
  <!-- Top Wave (narrowest) -->
  <g
    transform="matrix(1 0 0 1 250 268)"
    fill="none"
    stroke="#00cfd6"
    stroke-width="15"
    class="smoke_sensor_trigger_lines"
  >
    <path d="M -50 0 Q -40 10 -30 0 Q -20 -10 -10 0 Q 0 10 10 0 Q 20 -10 30 0 Q 40 10 50 0" />
  </g>

  <!-- Middle Wave (wider) -->
  <g
    transform="matrix(1 0 0 1 250 318)"
    fill="none"
    stroke="#00cfd6"
    stroke-width="15"
    class="smoke_sensor_trigger_lines"
  >
    <path d="M -65 0 Q -52 12 -39 0 Q -26 -12 -13 0 Q 0 12 13 0 Q 26 -12 39 0 Q 52 12 65 0" />
  </g>

  <!-- Bottom Wave (widest) -->
  <g
    transform="matrix(1 0 0 1 250 368)"
    fill="none"
    stroke="#00cfd6"
    stroke-width="15"
    class="smoke_sensor_trigger_lines"
  >
    <path d="M -80 0 Q -64 14 -48 0 Q -32 -14 -16 0 Q 0 14 16 0 Q 32 -14 48 0 Q 64 14 80 0" />
  </g>
</svg>
